<svg xmlns="http://www.w3.org/2000/svg" viewBox="0 0 180 180" role="img" aria-label="Realistic autumn maple leaf">
  <defs>
    <linearGradient id="leafFill" x1="26" y1="18" x2="152" y2="154" gradientUnits="userSpaceOnUse">
      <stop offset="0" stop-color="#ffe37a"/>
      <stop offset="0.24" stop-color="#f67b22"/>
      <stop offset="0.55" stop-color="#c51f25"/>
      <stop offset="0.82" stop-color="#8f151d"/>
      <stop offset="1" stop-color="#5b1219"/>
    </linearGradient>
    <linearGradient id="leafEdge" x1="38" y1="8" x2="130" y2="166" gradientUnits="userSpaceOnUse">
      <stop offset="0" stop-color="#fff2a6" stop-opacity="0.9"/>
      <stop offset="0.55" stop-color="#ff9f38" stop-opacity="0.45"/>
      <stop offset="1" stop-color="#4e0f18" stop-opacity="0.7"/>
    </linearGradient>
    <linearGradient id="stemFill" x1="79" y1="103" x2="117" y2="178" gradientUnits="userSpaceOnUse">
      <stop offset="0" stop-color="#9f4a19"/>
      <stop offset="1" stop-color="#4f2412"/>
    </linearGradient>
    <filter id="leafTexture" x="-15%" y="-15%" width="130%" height="130%">
      <feTurbulence type="fractalNoise" baseFrequency="0.9" numOctaves="4" seed="12" result="noise"/>
      <feColorMatrix in="noise" type="saturate" values="0"/>
      <feComponentTransfer>
        <feFuncA type="table" tableValues="0 0.08"/>
      </feComponentTransfer>
      <feBlend in="SourceGraphic" mode="multiply"/>
    </filter>
    <filter id="leafShadow" x="-30%" y="-30%" width="160%" height="170%">
      <feDropShadow dx="0" dy="7" stdDeviation="7" flood-color="#2b0611" flood-opacity="0.28"/>
    </filter>
  </defs>
  <g filter="url(#leafShadow)">
    <path d="M89.6 10.4 102.4 48.4 139.2 27.7 128.3 67.1 168.2 63.2 135.2 91.1 158.2 119.2 116.9 112.7 107.8 151.8 88.7 119.9 66.6 153.5 62 112.3 21.2 121.7 44.2 92.8 13.4 67.8 51.9 69.5 41.5 31.3 76.4 50.3 89.6 10.4Z" fill="url(#leafFill)" filter="url(#leafTexture)"/>
    <path d="M89.6 10.4 102.4 48.4 139.2 27.7 128.3 67.1 168.2 63.2 135.2 91.1 158.2 119.2 116.9 112.7 107.8 151.8 88.7 119.9 66.6 153.5 62 112.3 21.2 121.7 44.2 92.8 13.4 67.8 51.9 69.5 41.5 31.3 76.4 50.3 89.6 10.4Z" fill="none" stroke="url(#leafEdge)" stroke-width="2.7" stroke-linejoin="round"/>
    <path d="M88.7 117.6c4.1 18.6 12.3 37.9 24.4 54.7" fill="none" stroke="url(#stemFill)" stroke-width="8.2" stroke-linecap="round"/>
    <path d="M89.1 116.2 90 30.5M89.2 100.6 52.4 69.8M88.8 100.2l42.7-35.1M87.5 108.8 39.5 115M90.3 108.1l55.2 8.5M88.7 88.8 74.2 51.3M91 88.4l16-39.8" fill="none" stroke="#ffe7a5" stroke-width="3.2" stroke-linecap="round" stroke-opacity="0.66"/>
    <path d="M87.8 117.7 66.8 151.8M89.6 118.1l19.2 32.9" fill="none" stroke="#7b2215" stroke-width="2.2" stroke-linecap="round" stroke-opacity="0.52"/>
    <path d="M50.4 71.1c16.8 12.4 29 15.3 37.6 15.9M130.5 65.7c-16.8 13.3-29.2 17.6-38.6 20.1M39.7 114.6c20.8-6.2 36.1-7.6 48.6-5.7M143.8 116.3c-24.2-6.9-39.8-8.5-54.1-7.7" fill="none" stroke="#5f1012" stroke-width="1.7" stroke-linecap="round" stroke-opacity="0.44"/>
    <path d="M72.4 54.2c-8.8-6.7-17.1-13.5-26-17.7l7.2 25.2c6.5.1 13.2-.3 20.7-1.2M108.7 47.9c8.6-4.7 17.3-9.9 25.3-14.3l-7.3 26.6c-6.1 1.2-12.8 1.4-19.7 1.1" fill="#ffbe4f" opacity="0.22"/>
    <path d="M89.8 17.8c4 12.5 7 23.9 9.1 34.2-6.2 1.1-11.8 0.9-17.1-.5 1.6-10 4.1-21.1 8-33.7Z" fill="#ffd768" opacity="0.24"/>
  </g>
</svg>
